# VPXTOOL table OBJ file
# VPXTOOL OBJ file
# numVerts: 41 numFaces: 144
o screw
v -0.0002739999908953905 -0.06966099888086319 0.01939699985086918
v 0.007178000174462795 -0.04169600084424019 0.033271998167037964
v -0.007726000156253576 -0.04169600084424019 0.033271998167037964
v 0.06931599974632263 -0.00007100000220816582 0.01939699985086918
v 0.04135100170969963 0.007381000090390444 0.033271998167037964
v 0.04135100170969963 -0.00752299977466464 0.033271998167037964
v -0.0002739999908953905 0.06951899826526642 0.01939699985086918
v -0.007726000156253576 0.04155400022864342 0.033271998167037964
v 0.007178000174462795 0.04155400022864342 0.033271998167037964
v -0.06986399739980698 -0.00007100000220816582 0.01939699985086918
v -0.041898999363183975 -0.00752299977466464 0.033271998167037964
v -0.041898999363183975 0.007381000090390444 0.033271998167037964
v -0.0002739999908953905 -0.00008800000068731606 0.00279600010253489
v -0.007726000156253576 -0.04169600084424019 0.033271998167037964
v 0.007178000174462795 -0.04169600084424019 0.033271998167037964
v 0.04135100170969963 -0.00752299977466464 0.033271998167037964
v 0.04135100170969963 0.007381000090390444 0.033271998167037964
v 0.007178000174462795 0.04155400022864342 0.033271998167037964
v -0.007726000156253576 0.04155400022864342 0.033271998167037964
v -0.041898999363183975 0.007381000090390444 0.033271998167037964
v -0.041898999363183975 -0.00752299977466464 0.033271998167037964
v 0.014081999659538269 -0.014426999725401402 0.03789699822664261
v 0.014081999659538269 0.014286000281572342 0.03789699822664261
v -0.014631000347435474 0.014286000281572342 0.03789699822664261
v -0.014631000347435474 -0.014426999725401402 0.03789699822664261
v -0.04948100075125694 -0.04927799850702286 0.01939699985086918
v 0.0489329993724823 -0.04927799850702286 0.01939699985086918
v 0.0489329993724823 0.04913699999451637 0.01939699985086918
v -0.04948100075125694 0.04913699999451637 0.01939699985086918
v -0.05260000005364418 -0.052397001534700394 0.0008980000275187194
v -0.07427400350570679 -0.00007100000220816582 0.0008980000275187194
v -0.0002739999908953905 -0.0740709975361824 0.0008980000275187194
v 0.05205199867486954 -0.052397001534700394 0.0008980000275187194
v 0.07372599840164185 -0.00007100000220816582 0.0008980000275187194
v 0.05205199867486954 0.05225500091910362 0.0008980000275187194
v -0.0002739999908953905 0.07392899692058563 0.0008980000275187194
v -0.05260000005364418 0.05225500091910362 0.0008980000275187194
v -0.014631000347435474 0.014286000281572342 0.03789699822664261
v 0.014081999659538269 0.014286000281572342 0.03789699822664261
v 0.014081999659538269 -0.014426999725401402 0.03789699822664261
v -0.014631000347435474 -0.014426999725401402 0.03789699822664261
vt 0.9551560282707214 0.5
vt 0.7722499966621399 0.548738956451416
vt 0.7722499966621399 0.4512619972229004
vt 0.5 0.9551559686660767
vt 0.4512610137462616 0.7722499966621399
vt 0.5487390160560608 0.7722499966621399
vt 0.04484400153160095 0.5
vt 0.2277500033378601 0.4512619972229004
vt 0.2277500033378601 0.548738956451416
vt 0.5 0.044843971729278564
vt 0.5487390160560608 0.2277500033378601
vt 0.4512610137462616 0.2277500033378601
vt 0.5001149773597717 0.5
vt 0.7722499966621399 0.4512619972229004
vt 0.7722499966621399 0.548738956451416
vt 0.5487390160560608 0.7722499966621399
vt 0.4512610137462616 0.7722499966621399
vt 0.2277500033378601 0.548738956451416
vt 0.2277500033378601 0.4512619972229004
vt 0.4512610137462616 0.2277500033378601
vt 0.5487390160560608 0.2277500033378601
vt 0.5939000248908997 0.5938999652862549
vt 0.40610000491142273 0.5938999652862549
vt 0.40610000491142273 0.40609997510910034
vt 0.5939000248908997 0.40609997510910034
vt 0.8218439817428589 0.1781560182571411
vt 0.8218439817428589 0.8218439817428589
vt 0.17815600335597992 0.8218439817428589
vt 0.17815600335597992 0.1781560182571411
vt 0.8422399759292603 0.15776002407073975
vt 0.5 0.015999972820281982
vt 0.984000027179718 0.5
vt 0.8422399759292603 0.8422399759292603
vt 0.5 0.984000027179718
vt 0.15775999426841736 0.8422399759292603
vt 0.01600000075995922 0.5
vt 0.15775999426841736 0.15776002407073975
vt 0.40610000491142273 0.40609997510910034
vt 0.40610000491142273 0.5938999652862549
vt 0.5939000248908997 0.5938999652862549
vt 0.5939000248908997 0.40609997510910034
vn 0 -0.8260999917984009 0.5634999871253967
vn 0.16529999673366547 -0.383899986743927 0.9083999991416931
vn -0.16529999673366547 -0.383899986743927 0.9083999991416931
vn 0.8260999917984009 0 0.5634999871253967
vn 0.383899986743927 0.16529999673366547 0.9083999991416931
vn 0.383899986743927 -0.16529999673366547 0.9083999991416931
vn 0 0.8260999917984009 0.5634999871253967
vn -0.16529999673366547 0.383899986743927 0.9083999991416931
vn 0.16529999673366547 0.383899986743927 0.9083999991416931
vn -0.8260999917984009 0 0.5634999871253967
vn -0.383899986743927 -0.16529999673366547 0.9083999991416931
vn -0.383899986743927 0.16529999673366547 0.9083999991416931
vn 0 0.00019999999494757503 1
vn 0.39800000190734863 0.49459999799728394 0.772599995136261
vn -0.39800000190734863 0.49459999799728394 0.772599995136261
vn -0.49459999799728394 0.3978999853134155 0.772599995136261
vn -0.4943999946117401 -0.3978999853134155 0.7728000283241272
vn -0.3977999985218048 -0.4943999946117401 0.7728000283241272
vn 0.3977999985218048 -0.4943999946117401 0.7728000283241272
vn 0.4943999946117401 -0.3978999853134155 0.7728000283241272
vn 0.49459999799728394 0.3978999853134155 0.772599995136261
vn -0.6121000051498413 0.6122999787330627 0.5004000067710876
vn -0.6119999885559082 -0.6118999719619751 0.5008999705314636
vn 0.6119999885559082 -0.6118999719619751 0.5008999705314636
vn 0.6121000051498413 0.6122999787330627 0.5004000067710876
vn -0.5738000273704529 -0.5738000273704529 0.5842999815940857
vn 0.5738000273704529 -0.5738000273704529 0.5842999815940857
vn 0.5738000273704529 0.5738000273704529 0.5842999815940857
vn -0.5738000273704529 0.5738000273704529 0.5842999815940857
vn -0.6877999901771545 -0.6877999901771545 0.23190000653266907
vn -0.9726999998092651 0 0.23190000653266907
vn 0 -0.9726999998092651 0.23190000653266907
vn 0.6877999901771545 -0.6877999901771545 0.23190000653266907
vn 0.9726999998092651 0 0.23190000653266907
vn 0.6877999901771545 0.6877999901771545 0.23190000653266907
vn 0 0.9726999998092651 0.23190000653266907
vn -0.6877999901771545 0.6877999901771545 0.23190000653266907
vn -0.2485000044107437 0.2485000044107437 0.9362000226974487
vn 0.2485000044107437 0.2485000044107437 0.9362000226974487
vn 0.2485000044107437 -0.2485000044107437 0.9362000226974487
vn -0.2485000044107437 -0.2485000044107437 0.9362000226974487
f 13/13/13 14/14/14 15/15/15
f 13/13/13 25/25/25 14/14/14
f 13/13/13 15/15/15 22/22/22
f 13/13/13 21/21/21 25/25/25
f 13/13/13 22/22/22 16/16/16
f 13/13/13 20/20/20 21/21/21
f 13/13/13 16/16/16 17/17/17
f 13/13/13 24/24/24 20/20/20
f 13/13/13 17/17/17 23/23/23
f 13/13/13 19/19/19 24/24/24
f 13/13/13 23/23/23 18/18/18
f 13/13/13 18/18/18 19/19/19
f 1/1/1 2/2/2 3/3/3
f 3/3/3 26/26/26 1/1/1
f 26/26/26 3/3/3 41/41/41
f 41/41/41 11/11/11 26/26/26
f 1/1/1 27/27/27 2/2/2
f 40/40/40 2/2/2 27/27/27
f 27/27/27 6/6/6 40/40/40
f 10/10/10 26/26/26 11/11/11
f 10/10/10 11/11/11 12/12/12
f 26/26/26 30/30/30 1/1/1
f 10/10/10 30/30/30 26/26/26
f 32/32/32 1/1/1 30/30/30
f 30/30/30 10/10/10 31/31/31
f 33/33/33 1/1/1 32/32/32
f 1/1/1 33/33/33 27/27/27
f 29/29/29 31/31/31 10/10/10
f 29/29/29 10/10/10 12/12/12
f 29/29/29 12/12/12 38/38/38
f 31/31/31 29/29/29 37/37/37
f 38/38/38 8/8/8 29/29/29
f 4/4/4 27/27/27 33/33/33
f 27/27/27 4/4/4 6/6/6
f 33/33/33 34/34/34 4/4/4
f 4/4/4 5/5/5 6/6/6
f 35/35/35 4/4/4 34/34/34
f 4/4/4 28/28/28 5/5/5
f 4/4/4 35/35/35 28/28/28
f 39/39/39 5/5/5 28/28/28
f 28/28/28 9/9/9 39/39/39
f 7/7/7 28/28/28 35/35/35
f 28/28/28 7/7/7 9/9/9
f 7/7/7 8/8/8 9/9/9
f 7/7/7 29/29/29 8/8/8
f 7/7/7 37/37/37 29/29/29
f 35/35/35 36/36/36 7/7/7
f 37/37/37 7/7/7 36/36/36
