# Visual Pinball table OBJ file
mtllib vpinball_screw.mtl
# Visual Pinball OBJ file
# numVerts: 29 numFaces: 144
o screw22
v 0.069590 0.000000 -0.018870
v 0.041625 0.007452 -0.032744
v 0.041625 -0.007452 -0.032745
v 0.000000 0.069590 -0.018869
v -0.007452 0.041625 -0.032744
v 0.007452 0.041625 -0.032744
v -0.069590 0.000000 -0.018870
v -0.041625 -0.007452 -0.032745
v -0.041625 0.007452 -0.032744
v 0.000000 -0.069590 -0.018870
v 0.007452 -0.041625 -0.032745
v -0.007452 -0.041625 -0.032745
v 0.000018 -0.000000 -0.002268
v 0.014357 0.014357 -0.037369
v -0.014357 0.014357 -0.037369
v -0.014357 -0.014356 -0.037370
v 0.014357 -0.014356 -0.037370
v 0.049207 -0.049207 -0.018870
v 0.049207 0.049207 -0.018869
v -0.049207 0.049207 -0.018869
v -0.049207 -0.049207 -0.018870
v 0.052326 -0.052326 -0.000370
v 0.000000 -0.074000 -0.000370
v 0.074000 -0.000000 -0.000370
v 0.052326 0.052326 -0.000369
v 0.000000 0.074000 -0.000369
v -0.052326 0.052326 -0.000369
v -0.074000 -0.000000 -0.000370
v -0.052326 -0.052326 -0.000370
vt 0.955156 0.500000
vt 0.772250 0.451261
vt 0.772250 0.548739
vt 0.500000 0.044844
vt 0.451261 0.227750
vt 0.548739 0.227750
vt 0.044844 0.500000
vt 0.227750 0.548739
vt 0.227750 0.451261
vt 0.500000 0.955156
vt 0.548739 0.772250
vt 0.451261 0.772250
vt 0.500115 0.500000
vt 0.593900 0.406100
vt 0.406100 0.406100
vt 0.406100 0.593900
vt 0.593900 0.593900
vt 0.821844 0.821844
vt 0.821844 0.178156
vt 0.178156 0.178156
vt 0.178156 0.821844
vt 0.842240 0.842240
vt 0.500000 0.984000
vt 0.984000 0.500000
vt 0.842240 0.157760
vt 0.500000 0.016000
vt 0.157760 0.157760
vt 0.016000 0.500000
vt 0.157760 0.842240
vn 0.826106 0.000000 -0.563494
vn 0.124638 -0.012635 -0.992096
vn 0.124638 0.012635 -0.992096
vn 0.000000 0.826106 -0.563494
vn 0.012604 0.124729 -0.992096
vn -0.012604 0.124638 -0.992096
vn -0.826106 0.000000 -0.563494
vn -0.124729 0.012574 -0.992096
vn -0.124729 -0.012574 -0.992096
vn 0.000000 -0.826106 -0.563494
vn -0.012604 -0.124638 -0.992096
vn 0.012604 -0.124729 -0.992096
vn -0.000244 0.000000 -0.999969
vn -0.332560 -0.332438 -0.882534
vn 0.332255 -0.332377 -0.882656
vn 0.332255 0.332377 -0.882656
vn -0.332560 0.332438 -0.882534
vn 0.573809 -0.573809 -0.584307
vn 0.573809 0.573809 -0.584307
vn -0.573809 0.573809 -0.584307
vn -0.573809 -0.573809 -0.584307
vn 0.687833 -0.687833 -0.231888
vn -0.000000 -0.972742 -0.231888
vn 0.972743 0.000001 -0.231886
vn 0.687833 0.687834 -0.231885
vn 0.000000 0.972743 -0.231885
vn -0.687833 0.687834 -0.231885
vn -0.972743 0.000001 -0.231886
vn -0.687833 -0.687833 -0.231888
f 28/28/28 7/7/7 29/29/29
f 7/7/7 28/28/28 27/27/27
f 21/21/21 29/29/29 7/7/7
f 29/29/29 21/21/21 23/23/23
f 27/27/27 20/20/20 7/7/7
f 10/10/10 23/23/23 21/21/21
f 23/23/23 10/10/10 22/22/22
f 8/8/8 21/21/21 7/7/7
f 18/18/18 22/22/22 10/10/10
f 9/9/9 8/8/8 7/7/7
f 9/9/9 7/7/7 20/20/20
f 21/21/21 8/8/8 16/16/16
f 12/12/12 10/10/10 21/21/21
f 16/16/16 12/12/12 21/21/21
f 12/12/12 11/11/11 10/10/10
f 11/11/11 18/18/18 10/10/10
f 12/12/12 16/16/16 13/13/13
f 16/16/16 8/8/8 13/13/13
f 11/11/11 12/12/12 13/13/13
f 8/8/8 9/9/9 13/13/13
f 18/18/18 11/11/11 17/17/17
f 17/17/17 11/11/11 13/13/13
f 15/15/15 9/9/9 20/20/20
f 9/9/9 15/15/15 13/13/13
f 17/17/17 3/3/3 18/18/18
f 3/3/3 17/17/17 13/13/13
f 20/20/20 5/5/5 15/15/15
f 15/15/15 5/5/5 13/13/13
f 20/20/20 27/27/27 4/4/4
f 5/5/5 20/20/20 4/4/4
f 26/26/26 4/4/4 27/27/27
f 4/4/4 26/26/26 25/25/25
f 5/5/5 6/6/6 13/13/13
f 6/6/6 5/5/5 4/4/4
f 25/25/25 19/19/19 4/4/4
f 6/6/6 4/4/4 19/19/19
f 6/6/6 14/14/14 13/13/13
f 14/14/14 6/6/6 19/19/19
f 14/14/14 2/2/2 13/13/13
f 19/19/19 2/2/2 14/14/14
f 2/2/2 3/3/3 13/13/13
f 19/19/19 25/25/25 1/1/1
f 2/2/2 19/19/19 1/1/1
f 3/3/3 2/2/2 1/1/1
f 18/18/18 3/3/3 1/1/1
f 1/1/1 22/22/22 18/18/18
f 24/24/24 1/1/1 25/25/25
f 22/22/22 1/1/1 24/24/24
